<?xml version="1.0" standalone="no"?>
<!DOCTYPE svg PUBLIC "-//W3C//DTD SVG 20010904//EN"
 "http://www.w3.org/TR/2001/REC-SVG-20010904/DTD/svg10.dtd">
<svg version="1.0" xmlns="http://www.w3.org/2000/svg"
 width="960.000000pt" height="720.000000pt" viewBox="0 0 960.000000 720.000000"
 preserveAspectRatio="xMidYMid meet">

<g transform="translate(0.000000,720.000000) scale(0.100000,-0.100000)"
fill="#000000" stroke="none">
<path d="M3129 6061 c-23 -18 -24 -26 -29 -183 l-5 -163 -197 -3 -197 -2 -25
-31 c-26 -30 -26 -33 -26 -200 0 -167 0 -170 25 -194 20 -21 34 -25 84 -25 33
0 62 -4 65 -9 3 -4 100 -980 216 -2167 116 -1187 215 -2169 220 -2181 l10 -23
1529 0 c1164 0 1532 3 1537 12 6 10 141 1330 174 1703 34 381 260 2647 265
2655 3 6 33 10 66 10 50 0 64 4 84 25 25 24 25 27 25 198 0 239 20 221 -242
227 l-203 5 -5 161 c-4 141 -7 165 -24 183 l-19 21 -1652 0 c-1612 0 -1653 0
-1676 -19z m3291 -70 c5 -11 10 -71 10 -135 0 -91 -3 -118 -16 -130 -14 -14
-174 -16 -1614 -16 -1440 0 -1600 2 -1614 16 -23 23 -23 245 0 268 14 14 175
16 1619 16 1576 0 1604 0 1615 -19z m451 -373 c5 -7 9 -68 9 -135 0 -97 -3
-125 -16 -137 -14 -14 -215 -16 -2064 -16 -1889 0 -2050 1 -2065 16 -14 14
-16 37 -13 146 2 83 7 131 15 136 6 4 937 6 2068 5 1715 -1 2059 -3 2066 -15z
m-186 -410 c-6 -47 -85 -859 -85 -877 0 -8 -478 -11 -1800 -11 -990 0 -1800 3
-1800 6 0 10 -79 815 -85 872 l-6 52 1891 0 1891 0 -6 -42z m-95 -990 c0 -7
-5 -53 -10 -103 -6 -49 -42 -409 -81 -800 -47 -481 -73 -712 -82 -717 -6 -4
-740 -8 -1629 -8 l-1617 0 -6 53 c-3 28 -28 259 -55 512 -28 253 -65 591 -83
751 -24 210 -30 295 -23 307 10 16 144 17 1798 17 1424 0 1788 -3 1788 -12z
m-1428 -1691 c685 -7 1249 -15 1252 -18 3 -3 -28 -348 -69 -767 -41 -419 -75
-766 -75 -772 0 -7 -466 -10 -1470 -10 -808 0 -1470 2 -1470 5 0 2 -34 347
-75 766 -41 418 -75 772 -75 785 l0 24 368 -1 c202 0 928 -6 1614 -12z"/>
<path d="M4552 5084 c-31 -21 -61 -84 -78 -163 -7 -36 -14 -69 -14 -73 0 -17
-16 -6 -31 21 -43 75 -159 29 -159 -63 0 -27 -21 -36 -91 -36 -35 0 -51 5 -67
23 -46 48 -18 174 43 197 37 14 54 3 57 -38 5 -67 68 -51 68 17 -1 81 -82 116
-170 71 -63 -32 -100 -102 -100 -189 0 -112 101 -172 235 -141 27 6 50 6 72
-2 43 -16 81 -2 109 39 12 18 24 29 28 26 3 -4 6 -36 6 -72 0 -84 15 -115 58
-119 30 -3 34 0 51 40 13 28 20 36 20 23 1 -32 30 -65 56 -65 39 0 55 35 55
119 l0 75 29 -34 c26 -31 34 -35 79 -35 35 0 59 6 78 20 l27 21 45 -23 c49
-25 105 -29 166 -12 27 8 41 8 49 0 14 -14 60 -14 74 0 8 8 16 7 31 -2 15 -10
27 -10 44 -2 16 7 28 7 40 -1 23 -14 39 3 63 69 17 45 19 48 25 25 4 -16 14
-26 29 -28 42 -6 82 54 49 75 -7 4 -13 17 -13 27 0 34 -31 43 -64 19 -28 -22
-29 -22 -34 -3 -3 11 -12 20 -20 20 -27 0 -46 -29 -53 -80 -4 -27 -13 -55 -21
-62 -13 -11 -14 -4 -8 55 7 62 6 67 -12 67 -10 0 -24 5 -30 11 -27 27 -123
-44 -123 -92 0 -24 -36 -39 -96 -39 -34 0 -51 6 -69 25 -47 46 -26 159 35 190
42 22 58 14 62 -32 3 -33 7 -38 29 -41 22 -3 29 2 38 29 9 26 8 39 -6 68 -50
100 -211 44 -249 -87 -9 -30 -14 -70 -11 -88 5 -28 1 -37 -20 -54 -14 -11 -35
-20 -46 -20 -16 0 -13 5 14 23 29 19 34 29 34 62 0 32 -5 42 -27 54 -24 14
-30 14 -63 -2 -19 -9 -41 -28 -47 -42 -6 -14 -18 -25 -25 -25 -11 0 -9 7 7 29
50 71 67 192 32 224 -27 25 -41 21 -78 -19 -28 -29 -34 -32 -34 -16 0 19 -29
52 -46 52 -5 0 -20 -7 -32 -16z m12 -113 c-8 -29 -17 -51 -20 -49 -2 3 3 28
12 57 8 29 17 51 20 49 2 -3 -3 -28 -12 -57z m141 22 c-8 -43 -36 -116 -42
-110 -4 5 25 125 33 139 12 19 16 5 9 -29z m-115 -128 c0 -19 -5 -25 -20 -25
-20 0 -20 1 -3 25 22 30 23 30 23 0z m220 -24 c0 -5 -7 -14 -15 -21 -16 -14
-18 -10 -9 14 6 17 24 22 24 7z m431 -54 c-6 -15 -15 -27 -21 -27 -14 0 -13
15 7 58 14 30 17 33 20 16 2 -11 -1 -32 -6 -47z m-875 25 c17 -45 -4 -73 -25
-34 -10 19 -4 62 8 62 4 0 11 -12 17 -28z m211 -54 c-3 -8 -6 -5 -6 6 -1 11 2
17 5 13 3 -3 4 -12 1 -19z m-50 -80 c-2 -13 -4 -5 -4 17 -1 22 1 32 4 23 2
-10 2 -28 0 -40z"/>
<path d="M4300 3650 c0 -127 2 -150 15 -150 10 0 15 -10 15 -34 0 -25 5 -35
20 -39 11 -3 20 -12 20 -21 0 -14 -22 -16 -179 -16 -170 0 -179 1 -184 20 -5
18 -14 20 -100 20 -86 0 -95 -2 -100 -20 -4 -17 -14 -20 -56 -20 -40 0 -51 -3
-51 -16 0 -9 9 -18 20 -21 11 -3 20 -12 20 -19 0 -8 -9 -14 -20 -14 -13 0 -20
-7 -20 -20 0 -13 -7 -20 -20 -20 -18 0 -20 -7 -20 -55 0 -54 -1 -55 -29 -55
-20 0 -30 6 -34 20 -4 15 -14 20 -41 20 l-36 0 0 69 c0 60 2 69 20 74 11 3 20
12 20 20 0 17 -41 27 -106 27 l-44 0 0 -60 c0 -47 3 -60 15 -60 8 0 15 -7 15
-16 0 -9 9 -18 20 -21 11 -3 20 -12 20 -19 0 -8 9 -14 20 -14 13 0 20 -7 20
-20 0 -16 7 -20 36 -20 27 0 37 -5 41 -20 4 -15 14 -20 39 -20 27 0 34 -4 34
-20 0 -11 7 -20 15 -20 9 0 18 -7 21 -15 4 -8 12 -15 20 -15 8 0 14 -9 14 -20
0 -13 7 -20 20 -20 13 0 20 -7 20 -20 0 -13 7 -20 20 -20 11 0 20 -7 20 -15 0
-12 17 -15 90 -15 73 0 90 3 90 15 0 8 7 15 16 15 9 0 18 9 21 20 3 11 12 20
20 20 8 0 17 9 20 20 3 11 12 20 19 20 8 0 14 7 14 15 0 8 7 15 16 15 9 0 18
9 21 20 5 20 14 20 579 20 l574 0 0 -35 c0 -25 4 -35 16 -35 9 0 18 -9 21 -20
3 -11 12 -20 20 -20 8 0 17 -9 20 -20 3 -11 12 -20 19 -20 8 0 14 -7 14 -15 0
-12 17 -15 95 -15 78 0 95 3 95 15 0 8 7 15 15 15 8 0 15 7 15 16 0 9 9 18 20
21 11 3 20 12 20 20 0 8 9 17 20 20 11 3 20 11 20 18 0 7 9 15 20 18 11 3 20
12 20 21 0 14 19 16 145 16 135 0 145 1 145 19 0 10 -9 21 -20 24 -33 9 -13
37 26 37 22 0 34 5 34 14 0 7 9 16 20 19 11 3 20 12 20 21 0 9 7 16 16 16 9 0
18 9 21 20 3 11 12 20 19 20 10 0 14 13 14 40 l0 40 -44 0 c-65 0 -106 -10
-106 -27 0 -8 9 -17 20 -20 17 -4 20 -14 20 -54 l0 -49 -126 0 c-117 0 -126
-1 -131 -20 -3 -11 -14 -20 -24 -20 -12 0 -19 -7 -19 -20 0 -11 -7 -20 -15
-20 -11 0 -15 13 -15 54 0 45 -3 54 -20 59 -11 3 -20 12 -20 21 0 9 -7 16 -15
16 -8 0 -15 7 -15 15 0 11 21 15 107 17 93 3 108 5 111 21 3 16 -9 17 -143 17
-138 0 -147 1 -152 20 -5 18 -14 20 -99 20 -87 0 -94 -1 -94 -20 0 -19 -7 -20
-125 -20 l-125 0 0 35 c0 24 5 35 15 35 12 0 15 13 15 60 0 53 -2 60 -20 60
-13 0 -20 7 -20 20 0 11 -7 20 -15 20 -8 0 -15 7 -15 15 0 12 -13 15 -55 15
-48 0 -55 2 -55 20 0 13 -7 20 -20 20 -13 0 -20 7 -20 20 0 16 -7 20 -35 20
-24 0 -35 5 -35 15 0 13 -36 15 -265 15 l-265 0 0 -110 c0 -103 1 -110 20
-110 13 0 20 -7 20 -20 0 -20 7 -20 370 -20 322 0 370 -2 370 -15 0 -8 -9 -15
-20 -15 -17 0 -20 -7 -20 -40 l0 -40 -346 0 c-337 0 -346 0 -351 20 -3 11 -12
20 -19 20 -9 0 -14 12 -14 36 0 27 -5 37 -20 41 -19 5 -20 14 -20 149 0 137
-1 144 -20 144 -19 0 -20 -7 -20 -150z m590 55 c0 -11 11 -15 36 -15 27 0 37
-5 41 -20 3 -11 12 -20 19 -20 8 0 14 -9 14 -20 0 -12 -7 -20 -16 -20 -9 0
-14 -7 -12 -17 2 -14 15 -19 56 -21 37 -2 52 -7 52 -18 0 -11 -18 -14 -89 -14
-80 0 -89 2 -94 20 -3 11 -12 20 -20 20 -8 0 -17 9 -20 20 -4 15 -14 20 -41
20 -25 0 -36 4 -36 15 0 12 -19 15 -110 15 l-110 0 0 -55 0 -55 -75 0 -75 0 0
90 0 90 240 0 c207 0 240 -2 240 -15z m-110 -115 c0 -16 7 -20 35 -20 24 0 35
-5 35 -15 0 -13 -21 -15 -125 -15 l-125 0 0 35 0 35 90 0 c83 0 90 -1 90 -20z
m-817 -260 c4 -15 14 -20 41 -20 34 0 36 -1 36 -35 0 -24 5 -35 15 -35 11 0
15 -12 15 -50 0 -36 -4 -52 -15 -56 -9 -4 -15 -19 -15 -40 0 -33 -1 -34 -40
-34 -33 0 -40 -3 -40 -20 0 -17 -7 -20 -49 -20 -40 0 -50 3 -54 20 -4 15 -14
20 -41 20 -34 0 -36 1 -36 35 0 24 -5 35 -15 35 -12 0 -15 13 -15 55 0 42 3
55 15 55 10 0 15 11 15 35 0 30 3 35 24 35 35 0 56 10 56 26 0 10 14 14 49 14
40 0 50 -3 54 -20z m447 0 c0 -11 4 -20 9 -20 14 0 61 -45 61 -59 0 -6 9 -11
20 -11 13 0 20 -7 20 -20 0 -13 7 -20 20 -20 11 0 20 -7 20 -15 0 -13 -29 -15
-205 -15 l-205 0 0 55 c0 42 -3 55 -15 55 -8 0 -15 9 -15 20 0 13 -7 20 -20
20 -11 0 -20 7 -20 15 0 13 25 15 165 15 158 0 165 -1 165 -20z m110 5 c0 -12
13 -15 55 -15 43 0 55 3 55 15 0 13 29 15 222 13 166 -2 222 -6 226 -15 2 -8
-5 -13 -17 -13 -17 0 -21 -6 -21 -34 0 -25 -5 -35 -20 -39 -15 -4 -20 -14 -20
-41 l0 -36 -200 0 c-193 0 -200 1 -200 20 0 13 -7 20 -20 20 -13 0 -20 7 -20
20 0 13 -7 20 -20 20 -11 0 -20 7 -20 15 0 8 -7 15 -15 15 -8 0 -15 9 -15 20
0 13 -7 20 -20 20 -11 0 -20 7 -20 15 0 10 11 15 35 15 24 0 35 -5 35 -15z
m810 0 c0 -8 -7 -15 -15 -15 -8 0 -15 -9 -15 -20 0 -13 -7 -20 -20 -20 -18 0
-20 -7 -20 -55 l0 -55 -110 0 -110 0 0 31 c0 22 5 32 20 36 15 4 20 14 20 38
0 24 5 34 20 38 11 3 20 12 20 21 0 14 16 16 105 16 87 0 105 -3 105 -15z
m233 -5 c4 -15 14 -20 36 -20 29 0 31 -3 31 -35 0 -28 4 -35 20 -35 18 0 20
-7 20 -55 0 -48 -2 -55 -20 -55 -16 0 -20 -7 -20 -35 0 -33 -2 -35 -35 -35
-28 0 -35 -4 -35 -20 0 -17 -7 -20 -51 -20 -42 0 -52 3 -56 20 -4 15 -14 20
-39 20 -32 0 -34 2 -34 34 0 25 -5 35 -20 39 -17 4 -20 14 -20 56 0 44 3 51
20 51 16 0 20 7 20 35 0 32 2 35 31 35 22 0 32 5 36 20 4 17 14 20 58 20 44 0
54 -3 58 -20z"/>
<path d="M3890 3281 c0 -34 -3 -41 -20 -41 -13 0 -20 7 -20 20 0 11 -7 20 -15
20 -8 0 -15 -9 -15 -20 0 -11 7 -20 15 -20 31 0 15 -29 -17 -32 -22 -2 -34 -9
-36 -20 -3 -15 4 -18 32 -18 29 0 36 -4 36 -20 0 -11 -7 -20 -15 -20 -8 0 -15
-9 -15 -20 0 -11 5 -20 11 -20 6 0 13 9 16 20 3 11 14 20 24 20 15 0 19 -7 19
-35 0 -28 4 -35 20 -35 16 0 20 7 20 35 0 24 5 35 15 35 8 0 15 9 15 20 0 11
-7 20 -15 20 -8 0 -15 9 -15 20 0 11 7 20 15 20 8 0 15 7 15 15 0 8 -6 15 -14
15 -10 0 -16 13 -18 37 -2 27 -8 39 -20 41 -15 3 -18 -4 -18 -37z m40 -56 c0
-8 -9 -15 -20 -15 -13 0 -20 -7 -20 -20 0 -13 7 -20 20 -20 13 0 20 -7 20 -20
0 -13 -7 -20 -20 -20 -13 0 -20 7 -20 20 0 13 -7 20 -20 20 -13 0 -20 7 -20
20 0 13 7 20 20 20 11 0 20 7 20 15 0 8 9 15 20 15 11 0 20 -7 20 -15z"/>
<path d="M3970 3260 c0 -11 7 -20 15 -20 8 0 15 9 15 20 0 11 -7 20 -15 20 -8
0 -15 -9 -15 -20z"/>
<path d="M3970 3191 c0 -17 6 -21 36 -21 28 0 35 3 32 18 -2 11 -14 18 -36 20
-27 3 -32 0 -32 -17z"/>
<path d="M3970 3109 c0 -24 23 -21 28 4 2 10 -3 17 -12 17 -10 0 -16 -9 -16
-21z"/>
<path d="M5490 3280 c0 -33 -3 -40 -20 -40 -13 0 -20 7 -20 20 0 13 -7 20 -20
20 -12 0 -20 -7 -20 -16 0 -9 9 -18 20 -21 35 -9 24 -33 -15 -33 -28 0 -35 -4
-35 -20 0 -16 7 -20 35 -20 28 0 35 4 35 20 0 12 7 20 16 20 9 0 18 -9 21 -20
3 -11 11 -20 18 -20 7 0 15 9 18 20 3 11 12 20 21 20 9 0 16 -8 16 -20 0 -16
7 -20 35 -20 28 0 35 4 35 20 0 16 -7 20 -35 20 -39 0 -50 24 -15 33 11 3 20
12 20 21 0 9 -8 16 -20 16 -13 0 -20 -7 -20 -20 0 -13 -7 -20 -20 -20 -17 0
-20 7 -20 40 0 29 -4 40 -15 40 -11 0 -15 -11 -15 -40z m30 -55 c0 -8 -7 -15
-15 -15 -8 0 -15 7 -15 15 0 8 7 15 15 15 8 0 15 -7 15 -15z"/>
<path d="M5450 3150 c0 -14 -7 -20 -21 -20 -14 0 -19 -5 -17 -17 5 -25 29 -28
35 -4 3 12 13 21 24 21 15 0 19 -7 19 -35 0 -24 5 -35 15 -35 10 0 15 11 15
35 0 28 4 35 19 35 11 0 21 -9 24 -21 6 -24 30 -21 35 4 2 12 -3 17 -17 17
-14 0 -21 6 -21 20 0 13 -7 20 -20 20 -13 0 -20 -7 -20 -20 0 -11 -7 -20 -15
-20 -8 0 -15 9 -15 20 0 13 -7 20 -20 20 -13 0 -20 -7 -20 -20z"/>
<path d="M4190 3630 l0 -130 35 0 35 0 0 130 0 130 -35 0 -35 0 0 -130z"/>
<path d="M4040 3710 c0 -18 -7 -20 -56 -20 -47 0 -57 -3 -61 -20 -5 -17 -14
-20 -59 -20 -41 0 -54 -4 -54 -15 0 -11 -12 -15 -51 -15 -42 0 -52 -3 -56 -20
-4 -15 -14 -20 -39 -20 -24 0 -34 -4 -34 -16 0 -9 -9 -18 -20 -21 -11 -3 -20
-14 -20 -24 0 -18 12 -19 280 -19 l280 0 0 115 0 115 -55 0 c-48 0 -55 -2 -55
-20z m70 -95 l0 -75 -200 0 c-171 0 -200 2 -200 15 0 11 12 15 51 15 42 0 52
3 56 20 5 17 14 20 59 20 47 0 54 2 54 20 0 18 7 20 55 20 48 0 55 2 55 20 0
16 7 20 35 20 l35 0 0 -75z"/>
<path d="M4450 3450 c0 -11 7 -20 15 -20 8 0 15 9 15 20 0 11 -7 20 -15 20 -8
0 -15 -9 -15 -20z"/>
</g>
</svg>
